<svg width="44px" height="33px" viewBox="0 0 44 33" version="1.1" xmlns="http://www.w3.org/2000/svg" xmlns:xlink="http://www.w3.org/1999/xlink" alt="Dunkle Wolke mit wenig Regen" title="Es ist bewölkt und könnte leicht regnen." class="weather-icon__icon"><title>wolke_dunkel__regen_wenig</title><g id="Page-1" stroke="none" stroke-width="1" fill="none" fill-rule="evenodd"><g id="Neue-Symbole" transform="translate(-84.000000, -114.000000)" fill-rule="nonzero"><g id="wolke_dunkel__regen_wenig" transform="translate(84.555786, 114.511635)"><path d="M19.2701503,27.5963167 L14.9701503,27.5963167 L12.8178587,31.8133167 L17.2178587,31.8133167 L19.2701503,27.5963167 Z M26.4526184,26.9922545 L22.1526184,26.9922545 L20.0003268,31.2092545 L24.4003268,31.2092545 L26.4526184,26.9922545 Z" id="Shape" fill="#AFD8FF"></path><path d="M30.2,13.4 C29.9,13.4 29.6,13.3 29.3,13.3 C26.6,13.3 24.3,15 23.5,17.4 L15,17.4 C14.6,13.6 11.4,10.7 7.5,10.7 C3.4,10.7 0,14 0,18.2 L0,18.3 C0,22.3 3.2,25.6 7.2,25.8 L29.4,25.8 C32.1,25.8 34.3,24.1 35.2,21.7 C35.7,21.8 36.2,21.9 36.7,21.9 C40.4003078,21.8999999 43.3999999,18.9003078 43.3999999,15.2 C43.3999999,11.4996922 40.4003078,8.5 36.7,8.5 C33.6,8.5 31,10.6 30.2,13.4" id="Path" fill="#D3D3D3"></path><path d="M16.2,8.6 C12,8.6 8.6,12 8.6,16.1 C8.6,20.3 12,23.7 16.1,23.7 C18.7,23.7 21,22.4 22.4,20.3 C23.7,20.8 25.1,21.1 26.5,21.1 C32.3,21.1 37.1,16.4 37.1,10.5 C37.1,4.8 32.4,-5.32907052e-15 26.6,-5.32907052e-15 C21.4,-5.32907052e-15 17.1,3.7 16.2,8.6" id="Path" fill="#E6E6E6"></path></g></g></g></svg>