<svg xmlns="http://www.w3.org/2000/svg" width="45" height="45" viewBox="0 0 45 35" alt="Sonne" title="Strahlender Sonnenschein" class="weather-icon__icon"><g fill="#F8C200" fill-rule="nonzero" transform="translate(5)"><circle cx="17.7" cy="17.5" r="7.2"></circle><path d="M34.5 15H27c.2.7.3 1.4.3 2.1 0 .8-.1 2.2-.3 2.2h7.6c.1-.6.1-1.2.1-1.8 0-.8-.1-1.6-.2-2.5zM17.4 7.9c.7 0 1.4.1 2.1.3V.6c-.7-.1-1.3-.1-2-.1-.8 0-1.6.1-2.3.2v7.5c0-.2 1.5-.3 2.2-.3zM15.2 26.7v7.8c.8.1 1.5.2 2.3.2.7 0 1.4 0 2-.1v-7.8c-.7.2-1.4.3-2.1.3-.7-.1-2.2-.2-2.2-.4zM8.1 17.1c0-.8.1-1.4.3-2.1H.7c-.1.8-.2 1.7-.2 2.6 0 .6 0 1.2.1 1.8h7.8c-.2 0-.3-1.5-.3-2.3zM24.4 24.2c-.6.6-1.2 1-1.8 1.4L28 31c1.2-.9 2.2-2 3.1-3.2l-5.4-5.4c-.3.7-.7 1.3-1.3 1.8zM25.8 12.4l5.3-5.3c-.9-1.2-2-2.2-3.2-3.1l-5.3 5.3c.6.4 1.3.9 1.8 1.4.6.5 1 1.1 1.4 1.7zM9.5 22.4L4 27.9c.9 1.2 2 2.2 3.1 3.2l5.5-5.5c-.6-.4-1.2-.8-1.7-1.4-.5-.6-1-1.2-1.4-1.8zM10.9 10.7c.5-.5 1.1-1 1.7-1.4L7.3 4C6.1 4.9 5 6 4.1 7.1l5.4 5.4c.4-.6.9-1.2 1.4-1.8z"></path></g></svg>